# xmcd
#
# Track frame offsets:
#	151
#	11638
#	23161
#	37752
#	51333
#	65996
#	79304
#	91812
#	105585
#	118525
#	132497
#	143808
#	158374
#	171580
#	185168
#	196926
#	210754
#	224404
#	238235
#	251215
#	265334
#	279142
#	292787
#	307360
#	321545
#	334408
#
# Disc length: 4655 seconds
#
# Revision: 2
# Processed by: cddbd v1.5.2PL0 Copyright (c) Steve Scherf et al.
# Submitted via: audiograbber 1.83.01
#
DISCID=8e122d1a
DTITLE=Hawkins, Coleman - The Complete Victor Recordings 1939-1956, Master Take
DTITLE=s, Disc 1
DYEAR=2006
DGENRE=Jazz
TTITLE0=Meet Doctor Foo
TTITLE1=Fine Dinner
TTITLE2=She's Funny That Way
TTITLE3=Body and Soul
TTITLE4=When Day is Done
TTITLE5=The Sheik of Araby
TTITLE6=My Blue Heaven
TTITLE7=Bouncing with Bean
TTITLE8=Say It Isn't So
TTITLE9=Spotlite
TTITLE10=Indiana Winter
TTITLE11=Indian Summer
TTITLE12=Blow Me Down
TTITLE13=Buckin' the Blues
TTITLE14=Dixieland Stomp
TTITLE15=How Did She Look
TTITLE16=Under a Blanket of Blue
TTITLE17=Never in a Million Years
TTITLE18=You Were Meant For Me
TTITLE19=April in Paris
TTITLE20=How Strange
TTITLE21=Half Step Down Please
TTITLE22=Angel Face
TTITLE23=Jumpin' Jane
TTITLE24=I Love You
TTITLE25=Picasso
EXTD=
EXTT0=
EXTT1=
EXTT2=
EXTT3=
EXTT4=
EXTT5=
EXTT6=
EXTT7=
EXTT8=
EXTT9=
EXTT10=
EXTT11=
EXTT12=
EXTT13=
EXTT14=
EXTT15=
EXTT16=
EXTT17=
EXTT18=
EXTT19=
EXTT20=
EXTT21=
EXTT22=
EXTT23=
EXTT24=
EXTT25=
PLAYORDER=
